<svg id="Layer_1" data-name="Layer 1" xmlns="http://www.w3.org/2000/svg" viewBox="0 0 460.94 395.44"><defs><style>.cls-1{fill:#6d6e71;}.cls-2{fill:#004a7c;}</style></defs><path class="cls-1" d="M86,292.68A11,11,0,0,1,90.47,289a14.13,14.13,0,0,1,6.1-1.34c3.63,0,6.33,1.15,8.12,3.46a14.15,14.15,0,0,1,2.68,8.9v33.71H103.2L102,331.16a14.21,14.21,0,0,1-3.84,2.27,11.9,11.9,0,0,1-4.5.86,10.59,10.59,0,0,1-3.61-.63,8.1,8.1,0,0,1-3.09-2A9.7,9.7,0,0,1,84.85,328a16.88,16.88,0,0,1-.78-5.51,18.93,18.93,0,0,1,.52-4.62A13.94,13.94,0,0,1,86.27,314a19.62,19.62,0,0,1,2.94-3.65,40.74,40.74,0,0,1,4.24-3.64q1.64-1.2,3.57-2.5t4.09-2.64v-1.41a7.45,7.45,0,0,0-1.34-4.62,4.77,4.77,0,0,0-4.09-1.79,6.71,6.71,0,0,0-3.5.93,7.33,7.33,0,0,0-2.53,2.57ZM95.61,328a6.47,6.47,0,0,0,2.9-.67,10.05,10.05,0,0,0,2.6-1.94V307.94c-.89.55-1.68,1.06-2.38,1.53s-1.36.95-2,1.45A16.71,16.71,0,0,0,92,316.2a11.78,11.78,0,0,0-1.27,5.36c0,2.33.45,4,1.34,5A4.6,4.6,0,0,0,95.61,328Z" transform="translate(-14.18 -52.28)"/><path class="cls-1" d="M118.61,288.22l1.11,2.82a12.7,12.7,0,0,1,3.83-2.53,11.42,11.42,0,0,1,4.43-.89,9.72,9.72,0,0,1,3.58.67,7.9,7.9,0,0,1,3,2,10.38,10.38,0,0,1,2.05,3.46,13.76,13.76,0,0,1,.78,4.84v24.63a13.72,13.72,0,0,1-.78,4.88,10.38,10.38,0,0,1-2.05,3.42,7.9,7.9,0,0,1-3,2.05,9.72,9.72,0,0,1-3.58.67,11.2,11.2,0,0,1-7.29-2.61v14.74h-6.63v-58.2Zm7.51,5.95a7.35,7.35,0,0,0-5.43,2.61v28.35a7.35,7.35,0,0,0,5.43,2.61,4,4,0,0,0,3.5-1.53,7.21,7.21,0,0,0,1.12-4.35V300.05a7.23,7.23,0,0,0-1.12-4.35A4,4,0,0,0,126.12,294.17Z" transform="translate(-14.18 -52.28)"/><path class="cls-1" d="M144.36,292.68a11,11,0,0,1,4.46-3.72,14.14,14.14,0,0,1,6.11-1.34q5.43,0,8.11,3.46a14.09,14.09,0,0,1,2.68,8.9v33.71h-4.17l-1.19-2.53a14.31,14.31,0,0,1-3.83,2.27,12,12,0,0,1-4.51.86,10.59,10.59,0,0,1-3.61-.63,8.07,8.07,0,0,1-3.08-2A9.71,9.71,0,0,1,143.2,328a16.88,16.88,0,0,1-.78-5.51,19.43,19.43,0,0,1,.52-4.62,13.94,13.94,0,0,1,1.68-3.94,20.47,20.47,0,0,1,2.94-3.65,40.74,40.74,0,0,1,4.24-3.64q1.63-1.2,3.57-2.5t4.1-2.64v-1.41a7.51,7.51,0,0,0-1.34-4.62,4.81,4.81,0,0,0-4.1-1.79,6.68,6.68,0,0,0-3.49.93,7.17,7.17,0,0,0-2.53,2.57ZM154,328a6.47,6.47,0,0,0,2.9-.67,10.09,10.09,0,0,0,2.61-1.94V307.94c-.9.55-1.69,1.06-2.38,1.53s-1.37.95-2,1.45a16.76,16.76,0,0,0-4.77,5.28,11.9,11.9,0,0,0-1.26,5.36c0,2.33.44,4,1.34,5A4.57,4.57,0,0,0,154,328Z" transform="translate(-14.18 -52.28)"/><path class="cls-1" d="M189.54,295.44a7.93,7.93,0,0,0-4.17-1.27q-3.72,0-6.33,3.87v35.65h-6.62V288.22H177l1.26,3.79a8.83,8.83,0,0,1,7.67-4.39,9.5,9.5,0,0,1,2.9.45,7.07,7.07,0,0,1,2.61,1.49Z" transform="translate(-14.18 -52.28)"/><path class="cls-1" d="M199.36,288.22v-8l6.4-2.68v10.65h7.6v5.58h-7.6v28.73a5.78,5.78,0,0,0,1.34,4.06,4.58,4.58,0,0,0,3.5,1.45,5.67,5.67,0,0,0,3.35-1.19l1.79,5.65a9,9,0,0,1-2.87,1.34,12.18,12.18,0,0,1-3.31.45,10.58,10.58,0,0,1-4.62-.93,8.59,8.59,0,0,1-3.16-2.53,10.71,10.71,0,0,1-1.82-3.76,16.87,16.87,0,0,1-.6-4.54V293.8h-4.91v-5.58Z" transform="translate(-14.18 -52.28)"/><path class="cls-1" d="M224.45,288.22l1,2.53a11.4,11.4,0,0,1,7.81-3.13,9.12,9.12,0,0,1,4.25,1,8.48,8.48,0,0,1,3.2,2.94,11.58,11.58,0,0,1,8.63-3.95,9.63,9.63,0,0,1,3.57.67,7.93,7.93,0,0,1,3,2,10.15,10.15,0,0,1,2,3.46,14.27,14.27,0,0,1,.74,4.84v35.05h-6.62V300.05a7.7,7.7,0,0,0-1-4.35,3.93,3.93,0,0,0-3.5-1.53,7.1,7.1,0,0,0-5.06,2.38c0,.35.08.69.11,1s0,.68,0,1.08v35.05H236V300.05a7.7,7.7,0,0,0-1-4.35,3.92,3.92,0,0,0-3.5-1.53,6.83,6.83,0,0,0-4.91,2.23v37.29h-6.62V288.22Z" transform="translate(-14.18 -52.28)"/><path class="cls-1" d="M265.9,292.68a10.93,10.93,0,0,1,4.47-3.72,14.13,14.13,0,0,1,6.1-1.34q5.43,0,8.12,3.46a14.15,14.15,0,0,1,2.68,8.9v33.71H283.1l-1.19-2.53a14.37,14.37,0,0,1-3.84,2.27,11.9,11.9,0,0,1-4.5.86,10.59,10.59,0,0,1-3.61-.63,8,8,0,0,1-3.09-2,9.7,9.7,0,0,1-2.12-3.61,16.88,16.88,0,0,1-.78-5.51,18.93,18.93,0,0,1,.52-4.62,13.91,13.91,0,0,1,1.67-3.94,20.47,20.47,0,0,1,2.94-3.65,42,42,0,0,1,4.25-3.64q1.63-1.2,3.57-2.5t4.09-2.64v-1.41a7.45,7.45,0,0,0-1.34-4.62,4.77,4.77,0,0,0-4.09-1.79,6.71,6.71,0,0,0-3.5.93,7.33,7.33,0,0,0-2.53,2.57ZM275.51,328a6.47,6.47,0,0,0,2.9-.67,10.05,10.05,0,0,0,2.6-1.94V307.94c-.89.55-1.68,1.06-2.38,1.53s-1.36.95-2,1.45a16.71,16.71,0,0,0-4.76,5.28,11.78,11.78,0,0,0-1.27,5.36c0,2.33.45,4,1.34,5A4.6,4.6,0,0,0,275.51,328Z" transform="translate(-14.18 -52.28)"/><path class="cls-1" d="M298.5,288.22l1.05,2.6a12.36,12.36,0,0,1,8.18-3.2,10.19,10.19,0,0,1,3.69.67,8.26,8.26,0,0,1,3.05,2,9.75,9.75,0,0,1,2,3.46,14.52,14.52,0,0,1,.74,4.84v35.05h-6.62V300.05a7.3,7.3,0,0,0-1.12-4.35,4.21,4.21,0,0,0-3.65-1.53,7.67,7.67,0,0,0-5.28,2.38v37.14H294V288.22Z" transform="translate(-14.18 -52.28)"/><path class="cls-2" d="M474,214.7a3.7,3.7,0,0,0-2.3-.85q-1.7,0-4.49,2.19a78.2,78.2,0,0,0-6.06,5.33l-6.8,6.55a78.78,78.78,0,0,1-6.67,5.83,45.6,45.6,0,0,1-6.55,4.36,69.29,69.29,0,0,0-6.31,3.88q2.43-8,4.61-15.64t4.37-14.68q4.6-14.56,8.86-26.2t7.64-18.68a7,7,0,0,1,1-1.82,1.84,1.84,0,0,0,.48-1.09,2.52,2.52,0,0,0-1.45-2.43,8.52,8.52,0,0,0-4.61-1.21,60.67,60.67,0,0,0-7.52.6,71.83,71.83,0,0,0-9.1,1.82,55.32,55.32,0,0,0-8.25,2.91,13.34,13.34,0,0,0-5.21,3.64,53.43,53.43,0,0,0-5.71,10.31q-2.54,6-4.85,12.86t-4.49,14.19q-2.18,7.29-4.36,14.08-3.64,3.63-7.64,7.27a88.24,88.24,0,0,1-7.89,6.43,73,73,0,0,1-7.16,4.61,12.18,12.18,0,0,1-5.7,1.82c-2.42,0-3.64-1.53-3.64-4.61q0-8,4-19a220.35,220.35,0,0,1,9.09-21.47q5.1-10.44,10.07-18.56a89.28,89.28,0,0,1,6.92-10.31,4.87,4.87,0,0,0,1.45-2.91,3.09,3.09,0,0,0-1.7-2.55,7.92,7.92,0,0,0-4.36-1.09,66.72,66.72,0,0,0-7.77.6,90.19,90.19,0,0,0-9.82,1.82,58.84,58.84,0,0,0-9,2.91q-4,1.71-5.46,3.64a95.84,95.84,0,0,0-9.34,17,194.39,194.39,0,0,0-7.88,21.22c-1.37,4.45-2.57,8.87-3.61,13.29l-2.45,2.6q-3.64,3.88-8.25,8.25a76,76,0,0,1-9.22,7.52A9,9,0,0,1,322,240.3a3.92,3.92,0,0,1-3.4-1.34c-.65-.89-1-2.46-1-4.73A51.25,51.25,0,0,1,320.09,219a125.66,125.66,0,0,1,5.46-14.44q3-6.66,5.95-11.89a60.7,60.7,0,0,0,3.88-7.88,14.5,14.5,0,0,0,.73-3.88q0-3.65-4.73-6.19a78.49,78.49,0,0,1-9.34-5.94c-2-1.46-3.85-3-5.71-4.61a30.72,30.72,0,0,1-4.73-5.1,13.38,13.38,0,0,0,1.7-8.24q-.48-6.32-4.36-9.22a15.75,15.75,0,0,0-9.71-2.91,6.39,6.39,0,0,0-2.91,1.21,48.44,48.44,0,0,0-4.12,2.91c-1.46,1.13-2.88,2.27-4.25,3.4s-2.47,2-3.27,2.66c-1.14.82-1.91,2.43-2.31,4.86a35.33,35.33,0,0,0-.36,7.88q.24,4.25.85,8.25a17.48,17.48,0,0,0,1.57,5.7q-1.94,3.4-4.85,8.37a40,40,0,0,1-6.06,8.13c-1.62,1.62-3.24,3.15-4.86,4.61a30.91,30.91,0,0,1-5.7,4,46.69,46.69,0,0,1-6.69,3c-1.29.3-2.66.56-4.1.78-2.1.33-4.37.57-6.79.73q.48-2.91.85-5.82a45.49,45.49,0,0,0,.36-5.58q0-11.65-4.61-16.38a14.74,14.74,0,0,0-10.92-4.73q-6.3,0-13,4.49A30.32,30.32,0,0,0,208,187.89a17.92,17.92,0,0,0-2.19,8.49,29.14,29.14,0,0,0,3.52,14.68,26.57,26.57,0,0,0,9.58,9.83,54.45,54.45,0,0,1-13.7,15Q197.1,242,188.61,242c-3.24,0-5.79-.72-7.64-2.18s-2.79-4.28-2.79-8.49q0-7,3.27-16.74a91.59,91.59,0,0,1,8.86-18.8,84.81,84.81,0,0,1,12.85-16.26,35.18,35.18,0,0,1,15.53-9.34,4.24,4.24,0,0,0,2.79-1.94,6.66,6.66,0,0,0,.85-3.39,21.41,21.41,0,0,0-.85-5.34,21.1,21.1,0,0,0-2.55-5.82,21.4,21.4,0,0,0-3.88-4.61,6.82,6.82,0,0,0-4.61-1.94q-3.15,0-8.37,2.3A72.21,72.21,0,0,0,192,154.9a89.85,89.85,0,0,0-19.89,17.71,116,116,0,0,0-14.68,22.2,120.61,120.61,0,0,0-9.09,23.77,88,88,0,0,0-3.16,22.2c0,.25,0,.49,0,.74a4.15,4.15,0,0,0-1.84-.62,46.47,46.47,0,0,0-5.94-.36c-2.1,0-4.21,0-6.31.12s-4.28.12-6.55.12q-9.7,0-19.41-.73L85.5,238.6l-3.64-.73q5.34-9.21,10.19-18.8t10.44-19.77A99.77,99.77,0,0,0,124,187.65a159.24,159.24,0,0,0,18.31-15.28A164.07,164.07,0,0,0,157.8,155q7-9.09,12.86-18.32a109.51,109.51,0,0,0,12.73-25.59,82.93,82.93,0,0,0,4.49-26.81A71.45,71.45,0,0,0,187,73.75a49,49,0,0,0-2.67-10.43,22.3,22.3,0,0,0-5-7.89,11.16,11.16,0,0,0-8.25-3.15,69.1,69.1,0,0,0-24.5,4.12,67.81,67.81,0,0,0-19.41,11.16,83.41,83.41,0,0,0-15,16.38,139.73,139.73,0,0,0-11.65,20A189.67,189.67,0,0,0,91.69,126q-3.76,11.4-7,22.44T78.59,169.7q-2.79,10.19-5.7,18.19a47.5,47.5,0,0,1-13.59-2.18q-11.88-3.39-17.22-11.28a30.66,30.66,0,0,1-5.34-17.59,44,44,0,0,1,3.88-17.47A56.64,56.64,0,0,1,51.3,123.12a55.32,55.32,0,0,1,16.13-11.89,45.7,45.7,0,0,1,20.5-4.61q1.21,0,2.55.12a24.89,24.89,0,0,0,2.54.12,1.3,1.3,0,0,0,1.46-1,9,9,0,0,0,.24-2.18,15.15,15.15,0,0,0-.85-5.09,32.85,32.85,0,0,1-1.33-5.1,3.05,3.05,0,0,0-3.15-2.42,71.88,71.88,0,0,0-24.75,4.6,83,83,0,0,0-23,12.86,69.47,69.47,0,0,0-17,19.41,47.06,47.06,0,0,0-6.55,24.26,55.67,55.67,0,0,0,3.15,18.32A55,55,0,0,0,30.31,187a47.74,47.74,0,0,0,14.31,12,38.76,38.76,0,0,0,19.05,4.61h2.55a13.11,13.11,0,0,0,2.54-.24,147.11,147.11,0,0,1-8,19q-4.62,9.1-8.25,16.14c-2.27.81-4.81,1.86-7.64,3.15s-5.62,2.63-8.37,4-5.34,2.64-7.77,3.76-4.2,2-5.33,2.43c-1.46.81-3,1.58-4.61,2.31s-3.16,1.49-4.61,2.3a7.83,7.83,0,0,0,1.45,3.15A26.51,26.51,0,0,0,18.42,263a18,18,0,0,0,3.16,2.55,5.57,5.57,0,0,0,2.79,1,3.34,3.34,0,0,0,1.45-.25,63.16,63.16,0,0,0,7.4-2.66c2.67-1.13,5.42-2.19,8.25-3.16s5.62-1.82,8.37-2.55a29.92,29.92,0,0,1,7.52-1.09A53.06,53.06,0,0,1,71,258.73q7.27,1.95,14.31,3.16,6.55,1.22,10.43,2.06c2.59.57,4.61,1.05,6.07,1.46s2.55.69,3.27.84,1.54.33,2.43.49A20.66,20.66,0,0,0,111,267h6.55a19.82,19.82,0,0,0,10.91-3.27,51.39,51.39,0,0,0,9.1-7.4,46.38,46.38,0,0,0,6.31-7.89,29.59,29.59,0,0,0,1.71-3.09,30.56,30.56,0,0,0,1.32,5.16,29.09,29.09,0,0,0,5,8.85,27.48,27.48,0,0,0,7.77,6.55,20.5,20.5,0,0,0,10.31,2.55,49.74,49.74,0,0,0,18.56-3.64,78.34,78.34,0,0,0,17.34-9.71,103.25,103.25,0,0,0,15.29-13.82,110.36,110.36,0,0,0,12.13-16A59.17,59.17,0,0,0,243.8,224a72.4,72.4,0,0,0,12.26-3.51,64.26,64.26,0,0,0,8.12-3.28,89.42,89.42,0,0,0,17.1-10.92A93,93,0,0,0,290,198a70.26,70.26,0,0,0,7.28-9.34q1.69,1.22,4.25,3.28A7.58,7.58,0,0,0,306,194a7.79,7.79,0,0,1-.48,2.18q-3.41,8.25-5.58,14.8a113.57,113.57,0,0,0-3.4,12.25,99,99,0,0,0-1.7,10.56c-.32,3.23-.48,6.47-.48,9.7a53.49,53.49,0,0,0,.61,8.13,25.28,25.28,0,0,0,2.18,7.27,14.53,14.53,0,0,0,4.24,5.34,10.77,10.77,0,0,0,6.8,2.06q7.76,0,16.49-4.85a78.59,78.59,0,0,0,16.14-11.89c.71-.67,1.4-1.36,2.08-2,0,.44,0,.89,0,1.33q0,8.49,3.15,13.46t12.37,5a44,44,0,0,0,20-5.09,92.21,92.21,0,0,0,20.74-15q-1.94,7.77-4.12,16.5T390.21,282l-8.86,9.83q-4.49,5-9.1,10.55-12.62,14.81-24.5,31.06a241.84,241.84,0,0,0-20.26,32.63,135.18,135.18,0,0,0-11.88,32.14q-3.53,15.76.6,29.6a38.2,38.2,0,0,0,6.55,13.34,16.58,16.58,0,0,0,12.86,6.55A27.57,27.57,0,0,0,349.33,444a88.17,88.17,0,0,0,11.52-7.64,69.38,69.38,0,0,0,13.83-16.5,179.86,179.86,0,0,0,12.37-23.77q5.82-13.35,11-28.75t9.83-31.3q4.6-15.88,9-31.66t8.49-29.59a39.2,39.2,0,0,1,2.91-2.67l3.64-3c1.46-1.21,3.19-2.71,5.22-4.48s4.49-4.13,7.4-7q6.06-5.82,11.52-10.8t9.71-9.58a46.47,46.47,0,0,0,6.79-9.34,21.37,21.37,0,0,0,2.55-10.31A3.33,3.33,0,0,0,474,214.7ZM120.8,146.77q4.74-15.4,10.8-30.69,1.22-3.15,3.52-8.37t5.21-11c1.94-3.89,4-7.68,6.31-11.41a49.27,49.27,0,0,1,7-9.22c2.1-2.42,4.13-3.63,6.07-3.63a3.59,3.59,0,0,1,2.67,2.42,26.26,26.26,0,0,1,1.58,5.1,37.38,37.38,0,0,1,.72,6.18q.12,3.28.12,5.46a71.4,71.4,0,0,1-2.91,20.14,100.37,100.37,0,0,1-8,19.4q-3.64,6.56-8.13,13.23a107.68,107.68,0,0,1-22.2,24,89.18,89.18,0,0,1-13.83,9.1Q116.07,162.18,120.8,146.77ZM367.64,361.6q-5.58,17.7-10.79,31.54a164.83,164.83,0,0,1-10,22.19q-4.72,8.37-8.37,8.62a4.12,4.12,0,0,1-2.3-1.58q-1.1-1.33-1.1-7.64a68.87,68.87,0,0,1,3.4-20A149.13,149.13,0,0,1,347.75,372a233.29,233.29,0,0,1,13.71-23.66q7.88-12,17.1-23.41Q373.22,343.89,367.64,361.6Z" transform="translate(-14.18 -52.28)"/></svg>